<?xml version="1.0" encoding="UTF-8"?>
<svg version="1.1" xmlns="http://www.w3.org/2000/svg" width="512" height="512">
<path d="M0 0 C1.43420509 0.02516149 2.86845364 0.04796057 4.30273438 0.06835938 C7.76524881 0.12262596 11.2260808 0.20844291 14.6875 0.3125 C14.90664062 1.57578125 15.12578125 2.8390625 15.3515625 4.140625 C21.44290353 47.87130686 21.44290353 47.87130686 46.625 82.3125 C61.67565964 92.82101683 77.52357986 95.46633526 95.4987793 95.45776367 C96.52953079 95.46112228 97.56028229 95.4644809 98.62226868 95.46794128 C102.00209791 95.47737591 105.3818772 95.47939069 108.76171875 95.48046875 C111.13287882 95.4836868 113.5040387 95.48705128 115.87519836 95.49055481 C120.8369696 95.49652757 125.79872347 95.49839664 130.76049805 95.49780273 C137.08347738 95.49770128 143.406344 95.51134444 149.72929668 95.52857494 C154.62555949 95.53975536 159.52179558 95.54172008 164.41806984 95.54119301 C166.74739787 95.54236438 169.07672679 95.54673816 171.4060421 95.55452538 C196.49427246 95.63054193 218.26693787 94.44409341 237.625 76.46875 C255.95253555 57.30814465 259.21076111 25.49357863 262.6875 0.3125 C266.86424513 0.1869388 271.03993101 0.0972639 275.21801758 0.0378418 C276.63292622 0.01301884 278.04771121 -0.02085255 279.4621582 -0.06469727 C294.23028008 -0.51030975 306.57137356 3.13137485 317.6875 13.3125 C325.4518159 22.04408757 330.80110409 32.26794849 330.82172108 44.08107758 C330.82617892 45.26599588 330.83063676 46.45091418 330.83522969 47.6717391 C330.83495315 49.62636753 330.83495315 49.62636753 330.83467102 51.6204834 C330.83797081 53.01781647 330.84169662 54.41514859 330.8458125 55.8124795 C330.85582776 59.65681128 330.85954854 63.50112745 330.86220181 67.34547043 C330.86610634 71.49018771 330.87568466 75.63489265 330.88441467 79.77960205 C330.90417619 89.79216746 330.91424547 99.80473387 330.92314246 109.81731391 C330.92752639 114.53375295 330.93289297 119.25019087 330.93813133 123.96662903 C330.95514426 139.64800534 330.96963764 155.32938095 330.97688007 171.01076508 C330.97878994 175.08009339 330.98071027 179.1494217 330.98266602 183.21875 C330.98314976 184.23014929 330.9836335 185.24154858 330.9841319 186.28359634 C330.9924292 202.6614483 331.01776078 219.03922715 331.05024669 235.4170472 C331.0833359 252.23633782 331.10133057 269.05559131 331.10452431 285.87491465 C331.10668782 295.3164514 331.11541302 304.75788159 331.14098549 314.1993866 C331.16271802 322.24171496 331.1707304 330.28391087 331.16101871 338.32626528 C331.15648122 342.42702286 331.15832782 346.5275073 331.17778015 350.62822723 C331.19546473 354.38891026 331.19437174 358.14912196 331.17888286 361.90981036 C331.17540048 363.90099954 331.19149355 365.89219396 331.20848733 367.88331366 C331.12179774 380.06486661 328.00778882 389.59903983 320.6875 399.3125 C320.11 400.17875 319.5325 401.045 318.9375 401.9375 C311.5519579 409.73334999 300.98613709 415.89854295 290.10541052 416.44130117 C289.1781831 416.44308974 288.25095568 416.44487831 287.29563046 416.44672108 C285.68246941 416.45340784 285.68246941 416.45340784 284.03671926 416.46022969 C282.86105683 416.46004533 281.6853944 416.45986097 280.47410583 416.45967102 C279.22056637 416.46334771 277.96702691 416.4670244 276.67550141 416.4708125 C273.19827917 416.48081 269.72107419 416.48454566 266.24383962 416.48720181 C262.4924626 416.49111155 258.74109916 416.50068942 254.98973083 416.50941467 C245.93124418 416.52916016 236.87275645 416.53924286 227.81425366 416.54814246 C223.54560768 416.5525285 219.27696295 416.55789449 215.00831795 416.56313133 C200.813531 416.5801417 186.61874481 416.59463511 172.42394924 416.60188007 C168.74186133 416.60378988 165.05977343 416.60571023 161.37768555 416.60766602 C160.46255143 416.60814976 159.54741731 416.6086335 158.60455186 416.6091319 C143.78519267 416.61742943 128.96591427 416.64276253 114.14659034 416.67524669 C98.92284543 416.70834458 83.69914153 416.7263313 68.47536045 416.72952431 C59.93144886 416.73168688 51.38765508 416.74039841 42.84377861 416.76598549 C35.56636481 416.78772981 28.28909745 416.79572461 21.01165485 416.78601871 C17.30175579 416.78148477 13.59215866 416.78330687 9.88230133 416.80278015 C5.85125022 416.8237557 1.82086387 416.81339212 -2.21022034 416.80024719 C-3.37026772 416.81121644 -4.5303151 416.82218568 -5.72551543 416.83348733 C-17.51372221 416.74099962 -26.93452377 413.37996035 -36.3125 406.3125 C-37.17875 405.735 -38.045 405.1575 -38.9375 404.5625 C-47.77004142 396.19482918 -53.34900876 384.55982716 -53.9417057 372.40805054 C-53.96885954 369.88985515 -53.96929376 367.37127412 -53.94741821 364.85302734 C-53.95319363 363.44038074 -53.96114421 362.02774167 -53.97105443 360.61511803 C-53.99175669 356.77004054 -53.98168951 352.92559057 -53.96612334 349.08051205 C-53.95474486 344.91953915 -53.97230454 340.75866927 -53.98602295 336.59771729 C-54.00819099 328.46094202 -54.00348298 320.32439809 -53.98895974 312.18761396 C-53.97764208 305.57140685 -53.97614751 298.95526432 -53.98157883 292.33905029 C-53.98234499 291.39539152 -53.98311116 290.45173274 -53.98390054 289.47947824 C-53.98549926 287.56211867 -53.98712032 285.64475912 -53.9887635 283.72739959 C-54.00300215 265.77187702 -53.98665788 247.81648234 -53.95976166 229.86098075 C-53.9374246 214.4730117 -53.94130526 199.08523128 -53.96435547 183.69726562 C-53.9911468 165.80354777 -54.00162903 147.90994185 -53.98629415 130.01620674 C-53.9847015 128.10612108 -53.98312964 126.1960354 -53.98157883 124.28594971 C-53.98080745 123.34628809 -53.98003607 122.40662648 -53.97924132 121.43849027 C-53.97493431 114.83451537 -53.98218927 108.2306118 -53.99397659 101.62664795 C-54.00803721 93.57243416 -54.00412705 85.51846384 -53.97757287 77.46427774 C-53.9644824 73.35925056 -53.95920012 69.25462848 -53.97581863 65.1496048 C-53.99083122 61.38416737 -53.98234671 57.61950659 -53.95593087 53.85413861 C-53.94779095 51.86314288 -53.96392212 49.87209227 -53.98121703 47.88115501 C-53.83771279 34.57284251 -49.31576439 23.17761534 -40.3125 13.3125 C-28.41993633 2.45891225 -15.58986024 -0.48325102 0 0 Z M14.75 150.0625 C9.83051327 157.81441849 10.37638119 165.75705063 10.38671875 174.6796875 C10.38282469 176.08301926 10.37848857 177.48634985 10.37373352 178.88967896 C10.36629778 181.82313873 10.36654304 184.75647809 10.37182617 187.68994141 C10.37761421 191.42759092 10.36069349 195.16474381 10.3374815 198.90231133 C10.32266557 201.79874497 10.32188311 204.6950612 10.32499123 207.59152603 C10.32448185 208.96847643 10.31931707 210.34543408 10.30917931 211.72234726 C10.00465926 223.99690023 10.00465926 223.99690023 14.96244812 234.88790894 C22.25954652 241.6261889 31.80127031 240.62400205 41.0546875 240.61328125 C42.45801926 240.61717531 43.86134985 240.62151143 45.26467896 240.62626648 C48.19813873 240.63370222 51.13147809 240.63345696 54.06494141 240.62817383 C57.80259092 240.62238579 61.53974381 240.63930651 65.27731133 240.6625185 C68.17374497 240.67733443 71.0700612 240.67811689 73.96652603 240.67500877 C75.34347643 240.67551815 76.72043408 240.68068293 78.09734726 240.69082069 C90.37190023 240.99534074 90.37190023 240.99534074 101.26290894 236.03755188 C108.0011889 228.74045348 106.99900205 219.19872969 106.98828125 209.9453125 C106.99217531 208.54198074 106.99651143 207.13865015 107.00126648 205.73532104 C107.00870222 202.80186127 107.00845696 199.86852191 107.00317383 196.93505859 C106.99738579 193.19740908 107.01430651 189.46025619 107.0375185 185.72268867 C107.05233443 182.82625503 107.05311689 179.9299388 107.05000877 177.03347397 C107.05051815 175.65652357 107.05568293 174.27956592 107.06582069 172.90265274 C107.37034074 160.62809977 107.37034074 160.62809977 102.41255188 149.73709106 C95.11545348 142.9988111 85.57372969 144.00099795 76.3203125 144.01171875 C74.91698074 144.00782469 73.51365015 144.00348857 72.11032104 143.99873352 C69.17686127 143.99129778 66.24352191 143.99154304 63.31005859 143.99682617 C59.57240908 144.00261421 55.83525619 143.98569349 52.09768867 143.9624815 C49.20125503 143.94766557 46.3049388 143.94688311 43.40847397 143.94999123 C42.03152357 143.94948185 40.65456592 143.94431707 39.27765274 143.93417931 C25.88447794 143.59611434 25.88447794 143.59611434 14.75 150.0625 Z M142.6875 150.375 C139.2603418 155.4086386 139.0298134 159.29142552 139.6875 165.3125 C142.03542658 170.1889629 144.97510854 172.71587614 149.6875 175.3125 C154.36814169 176.63073367 159.10204572 176.46740425 163.92480469 176.47363281 C164.84742096 176.47859772 165.77003723 176.48356262 166.72061157 176.48867798 C169.7668737 176.50325884 172.81308374 176.51009505 175.859375 176.515625 C177.98301189 176.52138009 180.10664877 176.52713777 182.23028564 176.53289795 C186.68217205 176.54339654 191.13404046 176.54924659 195.5859375 176.55273438 C201.27634373 176.5582147 206.96651016 176.58223786 212.65684128 176.61070633 C217.04417606 176.62937711 221.43145362 176.63454069 225.81882477 176.63607025 C227.91587891 176.6390876 230.01293226 176.64708494 232.1099472 176.66025543 C235.05102008 176.6774077 237.99151389 176.6754132 240.93261719 176.66894531 C242.21880447 176.68276749 242.21880447 176.68276749 243.53097534 176.6968689 C249.64291413 176.65499645 256.56168732 176.09715451 261.31736374 171.86052322 C265.36222651 167.10599944 266.04351944 163.91833256 265.96484375 157.8515625 C265.55373556 154.08789598 264.2046364 152.09459813 261.6875 149.3125 C255.15719253 144.17161965 249.41205674 144.16164988 241.45019531 144.15136719 C240.52757904 144.14640228 239.60496277 144.14143738 238.65438843 144.13632202 C235.6081263 144.12174116 232.56191626 144.11490495 229.515625 144.109375 C227.39198811 144.10361991 225.26835123 144.09786223 223.14471436 144.09210205 C218.69282795 144.08160346 214.24095954 144.07575341 209.7890625 144.07226562 C204.09865627 144.0667853 198.40848984 144.04276214 192.71815872 144.01429367 C188.33082394 143.99562289 183.94354638 143.99045931 179.55617523 143.98892975 C177.45912109 143.9859124 175.36206774 143.97791506 173.2650528 143.96474457 C170.32397992 143.9475923 167.38348611 143.9495868 164.44238281 143.95605469 C163.58492462 143.9468399 162.72746643 143.93762512 161.84402466 143.9281311 C154.83884141 143.9761231 147.45939363 144.76588963 142.6875 150.375 Z M142.6875 214.375 C139.2603418 219.4086386 139.0298134 223.29142552 139.6875 229.3125 C142.03542658 234.1889629 144.97510854 236.71587614 149.6875 239.3125 C153.48238695 240.29587421 157.07656496 240.44932914 160.98730469 240.47363281 C162.23920593 240.48324036 163.49110718 240.4928479 164.78094482 240.50274658 C166.14041968 240.5075959 167.49989667 240.5118744 168.859375 240.515625 C169.89477291 240.51986607 169.89477291 240.51986607 170.95108795 240.52419281 C174.60541665 240.53914985 178.25970624 240.54840076 181.9140625 240.55273438 C185.66743028 240.55820783 189.42043326 240.58222166 193.17368698 240.61070633 C196.07868456 240.62943625 198.98359616 240.63454382 201.88864899 240.63607025 C203.27119181 240.639075 204.65373392 240.64702891 206.03621674 240.66025543 C218.45682847 241.07714037 218.45682847 241.07714037 229.29803467 235.8604126 C233.37748746 231.13226141 234.04343387 227.91173382 233.96484375 221.8515625 C233.55373556 218.08789598 232.2046364 216.09459813 229.6875 213.3125 C224.00624639 208.84002375 219.46144852 208.19532771 212.38769531 208.15136719 C210.50984344 208.13695587 210.50984344 208.13695587 208.59405518 208.12225342 C207.23458032 208.1174041 205.87510333 208.1131256 204.515625 208.109375 C203.48022709 208.10513393 203.48022709 208.10513393 202.42391205 208.10080719 C198.76958335 208.08585015 195.11529376 208.07659924 191.4609375 208.07226562 C187.70756972 208.06679217 183.95456674 208.04277834 180.20131302 208.01429367 C177.29631544 207.99556375 174.39140384 207.99045618 171.48635101 207.98892975 C170.10380819 207.985925 168.72126608 207.97797109 167.33878326 207.96474457 C153.74412217 207.56405373 153.74412217 207.56405373 142.6875 214.375 Z M14.75 278.0625 C9.83051327 285.81441849 10.37638119 293.75705063 10.38671875 302.6796875 C10.38282469 304.08301926 10.37848857 305.48634985 10.37373352 306.88967896 C10.36629778 309.82313873 10.36654304 312.75647809 10.37182617 315.68994141 C10.37761421 319.42759092 10.36069349 323.16474381 10.3374815 326.90231133 C10.32266557 329.79874497 10.32188311 332.6950612 10.32499123 335.59152603 C10.32448185 336.96847643 10.31931707 338.34543408 10.30917931 339.72234726 C10.00465926 351.99690023 10.00465926 351.99690023 14.96244812 362.88790894 C22.25954652 369.6261889 31.80127031 368.62400205 41.0546875 368.61328125 C42.45801926 368.61717531 43.86134985 368.62151143 45.26467896 368.62626648 C48.19813873 368.63370222 51.13147809 368.63345696 54.06494141 368.62817383 C57.80259092 368.62238579 61.53974381 368.63930651 65.27731133 368.6625185 C68.17374497 368.67733443 71.0700612 368.67811689 73.96652603 368.67500877 C75.34347643 368.67551815 76.72043408 368.68068293 78.09734726 368.69082069 C90.37190023 368.99534074 90.37190023 368.99534074 101.26290894 364.03755188 C108.0011889 356.74045348 106.99900205 347.19872969 106.98828125 337.9453125 C106.99217531 336.54198074 106.99651143 335.13865015 107.00126648 333.73532104 C107.00870222 330.80186127 107.00845696 327.86852191 107.00317383 324.93505859 C106.99738579 321.19740908 107.01430651 317.46025619 107.0375185 313.72268867 C107.05233443 310.82625503 107.05311689 307.9299388 107.05000877 305.03347397 C107.05051815 303.65652357 107.05568293 302.27956592 107.06582069 300.90265274 C107.37034074 288.62809977 107.37034074 288.62809977 102.41255188 277.73709106 C95.11545348 270.9988111 85.57372969 272.00099795 76.3203125 272.01171875 C74.91698074 272.00782469 73.51365015 272.00348857 72.11032104 271.99873352 C69.17686127 271.99129778 66.24352191 271.99154304 63.31005859 271.99682617 C59.57240908 272.00261421 55.83525619 271.98569349 52.09768867 271.9624815 C49.20125503 271.94766557 46.3049388 271.94688311 43.40847397 271.94999123 C42.03152357 271.94948185 40.65456592 271.94431707 39.27765274 271.93417931 C25.88447794 271.59611434 25.88447794 271.59611434 14.75 278.0625 Z M142.6875 278.375 C139.2603418 283.4086386 139.0298134 287.29142552 139.6875 293.3125 C142.03542658 298.1889629 144.97510854 300.71587614 149.6875 303.3125 C154.36814169 304.63073367 159.10204572 304.46740425 163.92480469 304.47363281 C164.84742096 304.47859772 165.77003723 304.48356262 166.72061157 304.48867798 C169.7668737 304.50325884 172.81308374 304.51009505 175.859375 304.515625 C177.98301189 304.52138009 180.10664877 304.52713777 182.23028564 304.53289795 C186.68217205 304.54339654 191.13404046 304.54924659 195.5859375 304.55273438 C201.27634373 304.5582147 206.96651016 304.58223786 212.65684128 304.61070633 C217.04417606 304.62937711 221.43145362 304.63454069 225.81882477 304.63607025 C227.91587891 304.6390876 230.01293226 304.64708494 232.1099472 304.66025543 C235.05102008 304.6774077 237.99151389 304.6754132 240.93261719 304.66894531 C242.21880447 304.68276749 242.21880447 304.68276749 243.53097534 304.6968689 C249.64291413 304.65499645 256.56168732 304.09715451 261.31736374 299.86052322 C265.36222651 295.10599944 266.04351944 291.91833256 265.96484375 285.8515625 C265.55373556 282.08789598 264.2046364 280.09459813 261.6875 277.3125 C255.15719253 272.17161965 249.41205674 272.16164988 241.45019531 272.15136719 C240.52757904 272.14640228 239.60496277 272.14143738 238.65438843 272.13632202 C235.6081263 272.12174116 232.56191626 272.11490495 229.515625 272.109375 C227.39198811 272.10361991 225.26835123 272.09786223 223.14471436 272.09210205 C218.69282795 272.08160346 214.24095954 272.07575341 209.7890625 272.07226562 C204.09865627 272.0667853 198.40848984 272.04276214 192.71815872 272.01429367 C188.33082394 271.99562289 183.94354638 271.99045931 179.55617523 271.98892975 C177.45912109 271.9859124 175.36206774 271.97791506 173.2650528 271.96474457 C170.32397992 271.9475923 167.38348611 271.9495868 164.44238281 271.95605469 C163.58492462 271.9468399 162.72746643 271.93762512 161.84402466 271.9281311 C154.83884141 271.9761231 147.45939363 272.76588963 142.6875 278.375 Z M142.6875 342.375 C139.2603418 347.4086386 139.0298134 351.29142552 139.6875 357.3125 C142.03542658 362.1889629 144.97510854 364.71587614 149.6875 367.3125 C153.48238695 368.29587421 157.07656496 368.44932914 160.98730469 368.47363281 C162.23920593 368.48324036 163.49110718 368.4928479 164.78094482 368.50274658 C166.14041968 368.5075959 167.49989667 368.5118744 168.859375 368.515625 C169.89477291 368.51986607 169.89477291 368.51986607 170.95108795 368.52419281 C174.60541665 368.53914985 178.25970624 368.54840076 181.9140625 368.55273438 C185.66743028 368.55820783 189.42043326 368.58222166 193.17368698 368.61070633 C196.07868456 368.62943625 198.98359616 368.63454382 201.88864899 368.63607025 C203.27119181 368.639075 204.65373392 368.64702891 206.03621674 368.66025543 C218.45682847 369.07714037 218.45682847 369.07714037 229.29803467 363.8604126 C233.37748746 359.13226141 234.04343387 355.91173382 233.96484375 349.8515625 C233.55373556 346.08789598 232.2046364 344.09459813 229.6875 341.3125 C224.00624639 336.84002375 219.46144852 336.19532771 212.38769531 336.15136719 C210.50984344 336.13695587 210.50984344 336.13695587 208.59405518 336.12225342 C207.23458032 336.1174041 205.87510333 336.1131256 204.515625 336.109375 C203.48022709 336.10513393 203.48022709 336.10513393 202.42391205 336.10080719 C198.76958335 336.08585015 195.11529376 336.07659924 191.4609375 336.07226562 C187.70756972 336.06679217 183.95456674 336.04277834 180.20131302 336.01429367 C177.29631544 335.99556375 174.39140384 335.99045618 171.48635101 335.98892975 C170.10380819 335.985925 168.72126608 335.97797109 167.33878326 335.96474457 C153.74412217 335.56405373 153.74412217 335.56405373 142.6875 342.375 Z " fill="#7303ED" transform="translate(117.3125,79.6875)"/>
<path d="M0 0 C10.27183783 7.75729193 18.61015649 17.56743571 20.6875 30.6875 C20.77602349 34.02316772 20.75308487 37.35157844 20.6875 40.6875 C21.26081055 40.6560791 21.83412109 40.6246582 22.42480469 40.59228516 C35.21526111 39.98431521 45.66648389 39.68012878 55.8203125 48.55078125 C62.70778357 55.74083996 66.0296099 64.68978178 65.91943359 74.54785156 C65.47560901 80.55583492 64.20991756 86.42356947 62.97143555 92.30908203 C62.50300915 94.54811655 62.05822437 96.79096845 61.61523438 99.03515625 C59.0825256 111.50342619 56.28853674 123.60031205 45.6875 131.6875 C40.53670334 134.84236296 35.76881417 136.80575722 29.67977905 136.83467102 C28.12807007 136.84540398 28.12807007 136.84540398 26.54501343 136.85635376 C24.84316391 136.86038712 24.84316391 136.86038712 23.10693359 136.86450195 C21.9115094 136.87107315 20.71608521 136.87764435 19.48443604 136.88441467 C15.51827636 136.90416561 11.55212993 136.91581818 7.5859375 136.92578125 C6.21820684 136.92983007 4.85047638 136.93394703 3.48274612 136.93813133 C-2.94638148 136.95718225 -9.37549764 136.97141114 -15.80464804 136.9797433 C-23.21228947 136.98950321 -30.6196311 137.01579016 -38.02716696 137.05624419 C-43.7606565 137.08647479 -49.49406047 137.10121889 -55.22762811 137.10452431 C-58.64799776 137.10686773 -62.0680471 137.11573417 -65.48833084 137.14098549 C-69.31098437 137.16536025 -73.13285878 137.16441406 -76.95556641 137.1574707 C-78.63919785 137.17668579 -78.63919785 137.17668579 -80.35684204 137.19628906 C-90.22856791 137.13109218 -97.34947126 134.37125935 -104.53125 127.57421875 C-111.53457051 120.15622795 -113.24817381 111.41407606 -115.3125 101.6875 C-115.52970703 100.6871875 -115.74691406 99.686875 -115.97070312 98.65625 C-116.68248961 95.35705027 -117.37594361 92.0545375 -118.0625 88.75 C-118.39701172 87.16940796 -118.39701172 87.16940796 -118.73828125 85.55688477 C-120.89355457 74.85422444 -121.65957996 64.99153679 -115.87109375 55.265625 C-110.83457094 48.300967 -104.42921786 43.52816636 -96.3125 40.6875 C-93.81713867 40.46044922 -93.81713867 40.46044922 -91.23046875 40.4921875 C-90.29912109 40.49863281 -89.36777344 40.50507812 -88.40820312 40.51171875 C-87.44849609 40.52847656 -86.48878906 40.54523437 -85.5 40.5625 C-84.52095703 40.57152344 -83.54191406 40.58054688 -82.53320312 40.58984375 C-80.12604939 40.61332818 -77.71940257 40.6461716 -75.3125 40.6875 C-75.33062744 40.03523438 -75.34875488 39.38296875 -75.36743164 38.7109375 C-75.58854869 25.00420761 -70.21623966 14.87104133 -61 4.9375 C-44.70456176 -10.48496833 -18.58433045 -12.3339951 0 0 Z " fill="#7303ED" transform="translate(283.3125,7.3125)"/>
<path d="M0 0 C10.56 0 21.12 0 32 0 C32 10.56 32 21.12 32 32 C21.44 32 10.88 32 0 32 C0 21.44 0 10.88 0 0 Z " fill="#7404ED" transform="translate(160,384)"/>
<path d="M0 0 C10.56 0 21.12 0 32 0 C32 10.56 32 21.12 32 32 C21.44 32 10.88 32 0 32 C0 21.44 0 10.88 0 0 Z " fill="#7404ED" transform="translate(160,256)"/>
</svg>
